# xmcd CD database file
#
# Track frame offsets:
#	150
#	2338
#	16303
#	20807
#	37417
#	51847
#	69741
#	80615
#	98796
#	117456
#	119185
#	134880
#	136319
#	155785
#	168342
#	180278
#	188699
#	219601
#
# Disc length: 3188 seconds
#
# Revision: 0
# Processed by: cddbd v1.5.2PL0 Copyright (c) Steve Scherf et al.
# Submitted via: NeoAudio 9.9.9
#
DISCID=0c0c7212
DTITLE=B for Bang - Across the universe of languages
DYEAR=2007
DGENRE=Jazz
TTITLE0=Ouverture
TTITLE1=Being for the benefit of Mr. Kite
TTITLE2=Interlude 1
TTITLE3=Helter Skelter
TTITLE4=Golden Slumbers
TTITLE5=I want you
TTITLE6=Reminiscence
TTITLE7=Happiness is a warm gun
TTITLE8=Julia
TTITLE9=Interlude 2
TTITLE10=Between those rocks
TTITLE11=Interlude 3
TTITLE12=Blackbird
TTITLE13=Come together
TTITLE14=Lucy in the sky with diamonds
TTITLE15=Notes to the future
TTITLE16=The last man on earth
TTITLE17=One more song
EXTD=YEAR: 2007
EXTT0=
EXTT1=
EXTT2=
EXTT3=
EXTT4=
EXTT5=
EXTT6=
EXTT7=
EXTT8=
EXTT9=
EXTT10=
EXTT11=
EXTT12=
EXTT13=
EXTT14=
EXTT15=
EXTT16=
EXTT17=
PLAYORDER=
